REM DIRINDEX 1\2,1\3,1\4,1\5
REM DIRNAME "folder01","folder02","folder03","folder04","folder05"
TITLE ""
FILE "P1Q_t_1339-1348.mp3" MP3
  TRACK 01 AUDIO
    TITLE "3:cjc173_4988"
    INDEX 01 00:00:00
  TRACK 02 AUDIO
    TITLE "0:"
    INDEX 01 00:01:31
  TRACK 03 AUDIO
    TITLE "4:cjc173_4989"
    INDEX 01 00:01:51
  TRACK 04 AUDIO
    TITLE "0:"
    INDEX 01 00:02:64
  TRACK 05 AUDIO
    TITLE "5:cjc173_4990"
    INDEX 01 00:03:09
  TRACK 06 AUDIO
    TITLE "0:"
    INDEX 01 00:07:12
  TRACK 07 AUDIO
    TITLE "3:cjc173_4991"
    INDEX 01 00:07:57
  TRACK 08 AUDIO
    TITLE "0:"
    INDEX 01 00:08:67
  TRACK 09 AUDIO
    TITLE "4:cjc173_4992"
    INDEX 01 00:09:11
  TRACK 10 AUDIO
    TITLE "0:"
    INDEX 01 00:11:59
  TRACK 11 AUDIO
    TITLE "5:cjc173_4993"
    INDEX 01 00:12:04
  TRACK 12 AUDIO
    TITLE "0:"
    INDEX 01 00:15:47
  TRACK 13 AUDIO
    TITLE "3:cjc173_4994"
    INDEX 01 00:16:19
  TRACK 14 AUDIO
    TITLE "0:"
    INDEX 01 00:17:42
  TRACK 15 AUDIO
    TITLE "4:cjc173_4995"
    INDEX 01 00:17:62
  TRACK 16 AUDIO
    TITLE "0:"
    INDEX 01 00:21:58
  TRACK 17 AUDIO
    TITLE "5:cjc173_4996"
    INDEX 01 00:22:02
  TRACK 18 AUDIO
    TITLE "0:"
    INDEX 01 00:25:53
  TRACK 19 AUDIO
    TITLE "3:cjc173_4997"
    INDEX 01 00:26:23
  TRACK 20 AUDIO
    TITLE "0:"
    INDEX 01 00:27:52
  TRACK 21 AUDIO
    TITLE "4:cjc173_4998"
    INDEX 01 00:27:74
  TRACK 22 AUDIO
    TITLE "0:"
    INDEX 01 00:29:20
  TRACK 23 AUDIO
    TITLE "5:cjc173_4999"
    INDEX 01 00:29:39
  TRACK 24 AUDIO
    TITLE "0:"
    INDEX 01 00:34:31
  TRACK 25 AUDIO
    TITLE "3:cjc173_5000"
    INDEX 01 00:35:03
  TRACK 26 AUDIO
    TITLE "0:"
    INDEX 01 00:36:10
  TRACK 27 AUDIO
    TITLE "4:cjc173_5001"
    INDEX 01 00:36:32
  TRACK 28 AUDIO
    TITLE "0:"
    INDEX 01 00:37:47
  TRACK 29 AUDIO
    TITLE "5:cjc173_5002"
    INDEX 01 00:37:66
  TRACK 30 AUDIO
    TITLE "0:"
    INDEX 01 00:42:05
  TRACK 31 AUDIO
    TITLE "3:cjc173_5003"
    INDEX 01 00:42:50
  TRACK 32 AUDIO
    TITLE "0:"
    INDEX 01 00:43:65
  TRACK 33 AUDIO
    TITLE "4:cjc173_5004"
    INDEX 01 00:44:10
  TRACK 34 AUDIO
    TITLE "0:"
    INDEX 01 00:46:54
  TRACK 35 AUDIO
    TITLE "5:cjc173_5005"
    INDEX 01 00:47:00
  TRACK 36 AUDIO
    TITLE "0:"
    INDEX 01 00:53:03
  TRACK 37 AUDIO
    TITLE "3:cjc173_5006"
    INDEX 01 00:53:50
  TRACK 38 AUDIO
    TITLE "0:"
    INDEX 01 00:54:69
  TRACK 39 AUDIO
    TITLE "4:cjc173_5007"
    INDEX 01 00:55:13
  TRACK 40 AUDIO
    TITLE "0:"
    INDEX 01 00:57:04
  TRACK 41 AUDIO
    TITLE "5:cjc173_5008"
    INDEX 01 00:57:24
  TRACK 42 AUDIO
    TITLE "0:"
    INDEX 01 01:02:25
  TRACK 43 AUDIO
    TITLE "3:cjc173_5009"
    INDEX 01 01:02:70
  TRACK 44 AUDIO
    TITLE "0:"
    INDEX 01 01:04:18
  TRACK 45 AUDIO
    TITLE "4:cjc173_5010"
    INDEX 01 01:04:38
  TRACK 46 AUDIO
    TITLE "0:"
    INDEX 01 01:07:20
  TRACK 47 AUDIO
    TITLE "5:cjc173_5011"
    INDEX 01 01:07:40
  TRACK 48 AUDIO
    TITLE "0:"
    INDEX 01 01:11:24
  TRACK 49 AUDIO
    TITLE "3:cjc173_5012"
    INDEX 01 01:11:69
  TRACK 50 AUDIO
    TITLE "0:"
    INDEX 01 01:13:07
  TRACK 51 AUDIO
    TITLE "4:cjc173_5013"
    INDEX 01 01:13:29
  TRACK 52 AUDIO
    TITLE "0:"
    INDEX 01 01:16:55
  TRACK 53 AUDIO
    TITLE "5:cjc173_5014"
    INDEX 01 01:17:01
  TRACK 54 AUDIO
    TITLE "0:"
    INDEX 01 01:22:10
  TRACK 55 AUDIO
    TITLE "3:cjc173_5015"
    INDEX 01 01:22:55
  TRACK 56 AUDIO
    TITLE "0:"
    INDEX 01 01:23:72
  TRACK 57 AUDIO
    TITLE "4:cjc173_5016"
    INDEX 01 01:24:19
  TRACK 58 AUDIO
    TITLE "0:"
    INDEX 01 01:26:63
  TRACK 59 AUDIO
    TITLE "5:cjc173_5017"
    INDEX 01 01:27:05
  TRACK 60 AUDIO
    TITLE "0:"
    INDEX 01 01:32:12
